<svg width="32" height="32" viewBox="0 0 32 32" fill="none" xmlns="http://www.w3.org/2000/svg">
  <defs>
    <linearGradient id="favGradient" x1="0%" y1="0%" x2="100%" y2="100%">
      <stop offset="0%" style="stop-color:#3B82F6;stop-opacity:1" />
      <stop offset="100%" style="stop-color:#1D4ED8;stop-opacity:1" />
    </linearGradient>
  </defs>

  <!-- Background -->
  <circle cx="16" cy="16" r="15" fill="url(#favGradient)"/>

  <!-- Shield -->
  <path d="M16 6 L24 9 L24 16 Q24 21 16 26 Q8 21 8 16 L8 9 Z"
        fill="white"
        opacity="0.9"/>

  <!-- Lock -->
  <rect x="14" y="15" width="4" height="5" rx="0.5" fill="#1D4ED8"/>
  <path d="M12.5 15 L12.5 13 Q12.5 11 16 11 Q19.5 11 19.5 13 L19.5 15"
        stroke="#1D4ED8"
        stroke-width="1.5"
        fill="none"/>

  <!-- Star -->
  <path d="M16 22 L17 24 L19 24.2 L17.5 25.5 L18 27.5 L16 26.5 L14 27.5 L14.5 25.5 L13 24.2 L15 24 Z"
        fill="#FCD34D"
        opacity="0.9"/>
</svg>
