<svg width="200" height="200" viewBox="0 0 200 200" fill="none" xmlns="http://www.w3.org/2000/svg">
  <!-- Background Circle with Gradient -->
  <defs>
    <linearGradient id="bgGradient" x1="0%" y1="0%" x2="100%" y2="100%">
      <stop offset="0%" style="stop-color:#3B82F6;stop-opacity:1" />
      <stop offset="100%" style="stop-color:#1D4ED8;stop-opacity:1" />
    </linearGradient>
    <linearGradient id="shieldGradient" x1="0%" y1="0%" x2="0%" y2="100%">
      <stop offset="0%" style="stop-color:#60A5FA;stop-opacity:1" />
      <stop offset="100%" style="stop-color:#3B82F6;stop-opacity:1" />
    </linearGradient>
  </defs>

  <!-- Main Circle Background -->
  <circle cx="100" cy="100" r="90" fill="url(#bgGradient)"/>

  <!-- Shield Shape (Privacy Protection) -->
  <path d="M100 40 L140 55 L140 95 Q140 125 100 150 Q60 125 60 95 L60 55 Z"
        fill="url(#shieldGradient)"
        stroke="white"
        stroke-width="3"/>

  <!-- Lock Icon Inside Shield (Identity Security) -->
  <rect x="90" y="85" width="20" height="25" rx="2" fill="white" opacity="0.9"/>
  <path d="M85 85 L85 78 Q85 68 100 68 Q115 68 115 78 L115 85"
        stroke="white"
        stroke-width="4"
        fill="none"
        stroke-linecap="round"/>

  <!-- Three Stars (Reputation Score) -->
  <g opacity="0.95">
    <!-- Left Star -->
    <path d="M75 125 L78 132 L85 133 L80 138 L81 145 L75 141 L69 145 L70 138 L65 133 L72 132 Z"
          fill="#FCD34D"/>
    <!-- Center Star -->
    <path d="M100 125 L103 132 L110 133 L105 138 L106 145 L100 141 L94 145 L95 138 L90 133 L97 132 Z"
          fill="#FCD34D"/>
    <!-- Right Star -->
    <path d="M125 125 L128 132 L135 133 L130 138 L131 145 L125 141 L119 145 L120 138 L115 133 L122 132 Z"
          fill="#FCD34D"/>
  </g>

  <!-- FHE Encryption Symbol (Hexagon Pattern) -->
  <g opacity="0.3">
    <polygon points="40,60 50,55 60,60 60,70 50,75 40,70" stroke="white" stroke-width="1" fill="none"/>
    <polygon points="140,60 150,55 160,60 160,70 150,75 140,70" stroke="white" stroke-width="1" fill="none"/>
    <polygon points="40,130 50,125 60,130 60,140 50,145 40,140" stroke="white" stroke-width="1" fill="none"/>
    <polygon points="140,130 150,125 160,130 160,140 150,145 140,140" stroke="white" stroke-width="1" fill="none"/>
  </g>
</svg>
